<svg xmlns="http://www.w3.org/2000/svg" viewBox="44.76118760757315 0 60.67125645438899 60.422076000000004" style="max-height: 500px" width="60.67125645438899" height="60.422076000000004">
  <defs>
    <linearGradient id="gradient">
      <stop offset="0" stop-color="#00ff8f"/>
      <stop offset="1" stop-color="#00a1ff"/>
    </linearGradient>
  </defs>
  <g fill="url(#gradient)" transform="matrix(0.726,0,0,0.726,31.387,-15.501)">
    <path d="M101.39 103.58a.41.41 0 0 1-.41.41H19.16a.41.41 0 0 1-.41-.41V21.76a.41.41 0 0 1 .41-.41h81.82a.41.41 0 0 1 .41.41zm-5.47-76.55a.32.32 0 0 0-.32-.32H24.32a.32.32 0 0 0-.32.32v71.28a.32.32 0 0 0 .32.32H95.6a.32.32 0 0 0 .32-.32z"/>
    <path d="M90.57 93.03a.32.32 0 0 1-.32.32h-60.6a.32.32 0 0 1-.32-.32v-60.6a.32.32 0 0 1 .32-.32h60.6a.32.32 0 0 1 .32.32zm-5.44-55.25a.35.35 0 0 0-.35-.35H35.04a.35.35 0 0 0-.35.35v49.74a.35.35 0 0 0 .35.35h49.74a.35.35 0 0 0 .35-.35z"/>
    <path d="M79.314 81.976a.4.4 0 0 1-.4.401l-37.8.066a.4.4 0 0 1-.4-.4l-.068-38.48a.4.4 0 0 1 .4-.4l37.8-.066a.4.4 0 0 1 .4.4zM73.82 48.74a.32.32 0 0 0-.32-.32H46.42a.32.32 0 0 0-.32.32v27.94a.32.32 0 0 0 .32.32H73.5a.32.32 0 0 0 .32-.32z"/>
    <path d="M68.88 71.58a.55.55 0 0 1-.55.55h-16.9a.55.55 0 0 1-.55-.55V53.82a.55.55 0 0 1 .55-.55h16.9a.55.55 0 0 1 .55.55zm-5.363-12.584a.39.39 0 0 0-.39-.39l-6.56-.012a.39.39 0 0 0-.39.39l-.014 7.52a.39.39 0 0 0 .39.39l6.56.012a.39.39 0 0 0 .39-.39z"/>
  </g>
</svg>