<svg xmlns="http://www.w3.org/2000/svg" viewBox="0 77.87915200000002 150.77452667814114 51.644000000000005" style="max-height: 500px" width="150.77452667814114" height="51.644000000000005">
  <defs>
    <linearGradient id="gradient">
      <stop offset="0" stop-color="#00ff8f"/>
      <stop offset="1" stop-color="#00a1ff"/>
    </linearGradient>
  </defs>
  <g fill="#ffffff" transform="matrix(3.28,0,0,3.28,-5.32,63.59)">
    <path d="M12.2 16.96q0.3 0 0.5 0.21t0.2 0.51v1.46q0 0.28-0.2 0.49t-0.5 0.21H2.32q-0.28 0-0.49-0.21T1.62 19.14v-1.46q0-0.3 0.21-0.51t0.49-0.21H12.2zM2.32 13.86q-0.28 0-0.49-0.21T1.62 13.16v-1.5q0-0.28 0.21-0.49t0.49-0.21h8.98q0.3 0 0.51 0.21t0.21 0.49v1.5q0 0.28-0.21 0.49t-0.51 0.21H2.32zM12.2 5q0.3 0 0.5 0.21t0.2 0.49v1.46q0 0.3-0.2 0.51t-0.5 0.21H2.32q-0.28 0-0.49-0.21T1.62 7.16V5.7q0-0.28 0.21-0.49T2.32 5H12.2zM29.568 5.32q0.22 0.3 0.08 0.66l-5.48 13.54q-0.08 0.2-0.26 0.32t-0.4 0.12h-1.76q-0.22 0-0.4-0.12t-0.26-0.32L15.788 5.98q-0.16-0.34 0.06-0.66t0.58-0.32h6.68q0.28 0 0.49 0.21t0.21 0.51v1.46q0 0.3-0.21 0.51t-0.49 0.21h-3.36l3.06 7.7 4.02-10.16q0.08-0.2 0.26-0.32t0.4-0.12h1.68q0.18 0 0.34 0.09t0.24 0.23zM38.956 5.16q0.24 0.2 0.24 0.54v1.5q0 0.26-0.15 0.45t-0.41 0.25q-1.28 0.26-2.18 1.22-1.22 1.28-1.22 3.33t1.22 3.35q0.9 0.94 2.18 1.2 0.26 0.06 0.41 0.25t0.15 0.45v1.5q0 0.32-0.24 0.54-0.22 0.16-0.46 0.16h-0.12q-2.32-0.38-3.98-2.1-2.08-2.14-2.08-5.33t2.08-5.37q1.62-1.68 3.98-2.08 0.32-0.06 0.58 0.14zM45.236 7.1q2.08 2.18 2.08 5.37t-2.08 5.33q-1.66 1.72-3.98 2.1h-0.12q-0.24 0-0.46-0.16-0.24-0.22-0.24-0.54v-1.5q0-0.26 0.15-0.45t0.41-0.25q1.28-0.26 2.18-1.2 1.22-1.3 1.22-3.35t-1.22-3.33q-0.9-0.96-2.18-1.22-0.26-0.06-0.41-0.25t-0.15-0.45v-1.5q0-0.34 0.25-0.54t0.57-0.14q2.36 0.4 3.98 2.08z"/>
  </g>
</svg>